<svg xmlns:xlink="http://www.w3.org/1999/xlink" width="24" height="24" viewBox="0 0 24 24" xmlns="http://www.w3.org/2000/svg">
  <mask id="mask0_1205_4159" style="mask-type:alpha" maskUnits="userSpaceOnUse" x="0" y="0" width="24" height="24" fill="#A9A2A2">
    <rect width="24" height="24" fill="#A9A2A2"></rect>
  </mask>
  <g mask="url(#mask0_1205_4159)" fill="#A9A2A2">
    <path fill-rule="evenodd" clip-rule="evenodd" d="M20 10.857C20 14.6439 16.93 17.7139 13.143 17.7139C11.662 17.7139 10.2907 17.2444 9.16972 16.4461L5.95093 19.6648C5.50463 20.1111 4.78103 20.1111 4.33473 19.6648C3.88842 19.2185 3.88842 18.4949 4.33473 18.0486L7.55359 14.8298C6.75548 13.7089 6.28609 12.3378 6.28609 10.857C6.28609 7.06996 9.35605 4 13.143 4C16.93 4 20 7.06996 20 10.857ZM17.7143 10.857C17.7143 13.3816 15.6677 15.4283 13.143 15.4283C10.6184 15.4283 8.57174 13.3816 8.57174 10.857C8.57174 8.33231 10.6184 6.28566 13.143 6.28566C15.6677 6.28566 17.7143 8.33231 17.7143 10.857Z" fill="#A9A2A2"></path>
  </g>
</svg>