<svg xmlns:xlink="http://www.w3.org/1999/xlink" xmlns="http://www.w3.org/2000/svg" fill="none" viewBox="0 0 53 52" height="52" width="53">
<rect fill="#EDEBEA" rx="5" height="52" width="52" x="0.0422363"/>
<path fill="#353131" d="M26.0422 11.2433C30.8484 11.2433 31.4177 11.2616 33.3157 11.3482C35.0707 11.4283 36.0238 11.7215 36.6581 11.968C37.4982 12.2945 38.0979 12.6846 38.7278 13.3145C39.3576 13.9443 39.7477 14.544 40.0742 15.3841C40.3207 16.0185 40.6139 16.9715 40.694 18.7265C40.7806 20.6246 40.7989 21.1938 40.7989 26C40.7989 30.8063 40.7806 31.3755 40.694 33.2735C40.6139 35.0285 40.3207 35.9816 40.0742 36.616C39.7477 37.4561 39.3576 38.0558 38.7278 38.6856C38.0979 39.3154 37.4982 39.7056 36.6581 40.032C36.0238 40.2785 35.0707 40.5718 33.3157 40.6519C31.418 40.7385 30.8487 40.7568 26.0422 40.7568C21.2357 40.7568 20.6664 40.7385 18.7687 40.6519C17.0137 40.5718 16.0606 40.2785 15.4264 40.032C14.5862 39.7056 13.9865 39.3154 13.3566 38.6856C12.7268 38.0558 12.3367 37.4561 12.0102 36.616C11.7637 35.9816 11.4705 35.0285 11.3904 33.2736C11.3038 31.3755 11.2855 30.8063 11.2855 26C11.2855 21.1938 11.3038 20.6246 11.3904 18.7265C11.4705 16.9715 11.7637 16.0185 12.0102 15.3841C12.3367 14.544 12.7268 13.9443 13.3566 13.3145C13.9865 12.6846 14.5862 12.2945 15.4264 11.968C16.0606 11.7215 17.0137 11.4283 18.7686 11.3482C20.6667 11.2616 21.236 11.2433 26.0422 11.2433ZM26.0422 8C21.1537 8 20.5408 8.02072 18.6209 8.10832C16.7049 8.19578 15.3965 8.50001 14.2515 8.94501C13.0678 9.40501 12.064 10.0205 11.0633 11.0212C10.0627 12.0218 9.44718 13.0257 8.98718 14.2093C8.54218 15.3543 8.23794 16.6627 8.15048 18.5787C8.06289 20.4985 8.04224 21.1115 8.04224 26C8.04224 30.8886 8.06289 31.5016 8.15048 33.4214C8.23794 35.3373 8.54218 36.6458 8.98718 37.7908C9.44718 38.9743 10.0627 39.9782 11.0633 40.9789C12.064 41.9796 13.0678 42.5951 14.2515 43.0551C15.3965 43.5001 16.7049 43.8043 18.6209 43.8918C20.5408 43.9794 21.1537 44 26.0422 44C30.9307 44 31.5437 43.9794 33.4635 43.8918C35.3795 43.8043 36.6879 43.5001 37.8329 43.0551C39.0166 42.5951 40.0204 41.9796 41.0211 40.9789C42.0217 39.9782 42.6372 38.9744 43.0972 37.7908C43.5422 36.6458 43.8465 35.3373 43.9339 33.4214C44.0215 31.5016 44.0422 30.8886 44.0422 26C44.0422 21.1115 44.0215 20.4985 43.9339 18.5787C43.8465 16.6627 43.5422 15.3543 43.0972 14.2093C42.6372 13.0257 42.0217 12.0218 41.0211 11.0212C40.0204 10.0205 39.0166 9.40501 37.8329 8.94501C36.6879 8.50001 35.3795 8.19578 33.4635 8.10832C31.5437 8.02072 30.9307 8 26.0422 8ZM26.0422 16.7568C20.9373 16.7568 16.7989 20.8951 16.7989 26C16.7989 31.1049 20.9373 35.2433 26.0422 35.2433C31.1471 35.2433 35.2855 31.1049 35.2855 26C35.2855 20.8951 31.1471 16.7568 26.0422 16.7568ZM26.0422 32.0001C22.7285 32.0001 20.0422 29.3137 20.0422 26C20.0422 22.6863 22.7285 20 26.0422 20C29.3559 20 32.0422 22.6863 32.0422 26C32.0422 29.3137 29.3559 32.0001 26.0422 32.0001ZM37.8106 16.3916C37.8106 17.5845 36.8436 18.5516 35.6507 18.5516C34.4577 18.5516 33.4906 17.5845 33.4906 16.3916C33.4906 15.1986 34.4577 14.2316 35.6507 14.2316C36.8436 14.2316 37.8106 15.1986 37.8106 16.3916Z"/>
</svg>