<svg xmlns:xlink="http://www.w3.org/1999/xlink" xmlns="http://www.w3.org/2000/svg" viewBox="0 0 312.09 207.28" fill="currentColor" width="312.09"  height="207.28" >
  <path d="M22.61,27.24c-2.3-.04-4.63-.08-6.73-.08s-4.23.04-6.17.08l.2-.52c2.26-.08,3.26-.32,4.11-1.53.68-1.05,2.18-5.12,4.15-10.56l.64-1.77c1.97-5.44,3.51-9.51,3.51-10.64,0-1.05-.72-1.37-2.98-1.45l.2-.52h12.33c6.08,0,8.14-.24,8.14-.24-1.05,3.1-1.45,5-2.01,7.46h-.28c.28-4.8-.85-6.29-6.25-6.29-1.49,0-2.9.08-4.51.44l-4.19,11.53,3.06-.04c4.23-.04,5.36-.93,6.25-3.14l.36-.97h.52c-1.25,3.18-2.18,5.84-3.26,9.03h-.52c.48-1.45.6-1.93.6-2.34.04-1.21-1.01-1.73-4.23-1.77l-3.02-.04-.28.77c-1.97,5.44-3.47,9.35-3.47,10.48,0,1.21.64,1.49,4.03,1.61l-.2.52Z" fill="#FFFFFF"></path>
  <path d="M38.25,26.15c-.36.97-1.33,1.29-2.38,1.29-.89,0-1.77-.24-2.34-.52,3.3-7.21,5.92-13.22,5.92-14.55,0-.4-.16-.6-.52-.6-.77,0-2.26,1.33-3.06,2.42-.12,0-.24-.08-.24-.24,0-.56,3.51-5.24,6.29-5.24,1.09,0,1.49.64,1.49,1.73,0,1.41-.81,3.51-1.93,6.17h.08c2.9-4.96,4.59-7.9,7.13-7.9,1.53,0,2.46,1.25,2.46,2.7,0,1.57-1.01,2.66-2.14,2.66-2.1,0-1.69-2.38-2.74-2.38-1.17,0-4.51,4.88-6.21,9.51l-1.81,4.96Z" fill="#FFFFFF"></path>
  <path d="M49.33,21.76c0-5.64,6.04-13.06,11.65-13.06,2.94,0,5.2,1.93,5.2,5.88,0,5.64-6.04,13.06-11.65,13.06-2.94,0-5.2-1.93-5.2-5.88ZM53.08,24.06c0,1.85.32,2.9,1.45,2.9,3.34,0,7.9-9.55,7.9-14.67,0-1.85-.32-2.9-1.45-2.9-3.34,0-7.9,9.55-7.9,14.67Z" fill="#FFFFFF"></path>
  <path d="M75.97,10.44c0,1.37-.68,3.39-1.89,5.92h.08c2.7-4.47,5.44-7.66,8.34-7.66,1.77,0,2.58,1.17,2.58,2.86,0,1.25-.52,2.98-1.37,4.8h.08c2.7-4.47,5.44-7.66,8.66-7.66,1.81,0,2.54,1.21,2.54,2.7,0,2.38-4.72,11.93-4.72,12.73,0,.32.16.52.48.52.72,0,2.5-1.13,4.19-3.3.2,0,.28.08.28.28-2.54,3.79-5.08,6-7.37,6-1.17,0-2.18-.89-2.18-1.85s5.56-11.61,5.56-13.78c0-.73-.24-1.13-.97-1.13-1.61,0-5.08,2.94-7.46,8.54l-2.46,6.73c-.36.97-1.33,1.29-2.38,1.29-.89,0-1.77-.24-2.34-.52,3.75-8.06,5.92-12.61,5.92-14.75,0-.81-.32-1.29-1.09-1.29-1.57,0-4.92,3.02-7.29,8.62l-2.46,6.65c-.36.97-1.33,1.29-2.38,1.29-.89,0-1.77-.24-2.34-.52,3.3-7.21,5.92-13.22,5.92-14.55,0-.4-.16-.6-.52-.6-.77,0-2.26,1.33-3.06,2.42-.12,0-.24-.08-.24-.24,0-.56,3.51-5.24,6.29-5.24,1.09,0,1.57.64,1.57,1.73Z" fill="#FFFFFF"></path>
  <path d="M189.18,142.77c-1.81,0-2.82-1.13-3.39-2.54-1.97,1.53-4.11,2.54-6.17,2.54-2.38,0-4.03-1.65-4.03-4.27,0-3.87,5.88-8.1,8.14-11.24l-4.07.16c-2.74.12-3.79.77-3.79,1.53,0,.89,2.38.36,2.38,2.02,0,1.05-.69,1.61-1.53,1.61-.93,0-1.77-1.01-1.77-2.42,0-2.5,3.14-6.25,5.12-6.25,1.45,0,2.86,1.13,5.2.97l1.05-1.21c.2,0,.36.08.36.32-4.03,5.6-7.05,9.35-7.05,13.42,0,1.69,1.09,2.94,2.9,2.94,1.01,0,2.01-.32,3.02-.89-.36-1.21-.44-2.5-.44-3.34,0-5.44,3.14-12.29,6.85-12.29,1.65,0,2.26,1.25,2.26,3.02,0,2.74-2.62,7.66-6.12,11.32.64.97,1.69,1.53,2.98,1.53,3.87,0,7.38-5.08,7.38-8.66s-2.34-4.15-2.34-5.88c0-.77.65-1.61,1.73-1.61,1.89,0,2.7,1.89,2.7,4.11,0,4.92-5.36,15.11-11.36,15.11ZM187.81,137.7c2.5-2.5,4.31-6.41,4.31-9.79,0-.81-.36-1.49-1.13-1.49-2.14,0-3.83,4.11-3.83,8.42,0,1.09.24,2.1.64,2.86Z" fill="#FFFFFF"></path>
  <path d="M204.54,139.27c0,.32.16.52.48.52.73,0,2.5-1.13,4.19-3.3.2,0,.28.08.28.28-2.54,3.79-5.08,6-7.38,6-1.17,0-1.85-.89-1.85-1.85,0-.4,1.57-3.95,3.06-7.29,1.29-2.9,2.42-5.64,2.42-6.29,0-.36-.16-.6-.52-.6-.85,0-2.42,1.53-3.22,2.58-.12,0-.24-.08-.24-.24,0-.56,3.67-5.24,6.57-5.24,1.25,0,1.73.69,1.73,1.57,0,1.05-1.49,4.47-2.9,7.66-1.37,3.02-2.62,5.8-2.62,6.21ZM212.76,117.67c0,1.41-1.09,2.38-2.34,2.38s-2.34-.97-2.34-2.38,1.09-2.38,2.34-2.38,2.34.97,2.34,2.38Z" fill="#FFFFFF"></path>
  <path d="M212.93,142.77c-1.17,0-2.05-.81-2.05-2.01,0-.32.08-.69.24-1.09l5.24-13.66-2.74.04c0-.48.16-.93.56-1.17l2.66-.2,1.41-3.67c.28-.77,2.42-1.57,3.83-1.57.36,0,.65.04.89.16l-2.18,4.8,4.51-.36c-.16.48-.56,1.33-1.09,1.85l-4.11.08-4.63,11.65c-.4,1.01-.56,1.33-.56,1.69,0,.4.24.6.69.6,1.09,0,2.7-.89,5.8-5.16.24,0,.36.08.36.28-2.34,4.15-5.76,7.74-8.83,7.74Z" fill="#FFFFFF"></path>
  <path d="M230.01,114.28v-.24c2.5-.32,5.2-.89,6.81-1.49h.4l-8.18,21.12h.08c2.74-4.84,7.01-9.83,10.72-9.83,2.1,0,3.1,1.61,3.1,3.91,0,6.65-6.57,15.03-11.77,15.03-1.33,0-2.62-.85-2.62-2.3,0-1.37,1.05-2.1,1.93-2.1,1.77,0,1.49,3.1,2.78,3.1,2.3,0,5.64-7.94,5.64-12.9,0-1.13-.2-2.62-1.41-2.62-1.93,0-6.45,3.99-9.19,10.56l-1.97,4.76c-.4.97-1.21,1.29-2.06,1.29-.73,0-1.45-.24-2.01-.52,4.31-11.12,7.13-19.06,9.23-25.23.08-.2.12-.4.12-.56,0-.48-.16-.65-1.61-1.97Z" fill="#FFFFFF"></path>
  <path d="M73.75,69.18c0,24.19-22.9,46.45-45.8,46.45-15.7,0-27.95-10.86-27.95-27.74,0-24.19,22.9-46.45,45.8-46.45,15.7,0,27.95,10.86,27.95,27.74ZM61.71,64.34c0-13.22-6.13-20.43-15.91-20.43-17.09,0-33.76,23.65-33.76,48.81,0,13.22,6.13,20.43,15.91,20.43,17.09,0,33.76-23.65,33.76-48.81Z" fill="#FFFFFF"></path>
  <path d="M87.95,110.14c3.44,0,8.28-1.83,8.28-6.24,0-6.02-17.09-11.4-17.09-21.4,0-7.96,12.9-17.42,19.57-17.42,5.91,0,9.89,3.44,9.89,7.53,0,2.47-2.79,4.95-4.41,5.7-.97-1.94-4.3-7.85-11.5-7.85-3.65,0-7.42,2.47-7.42,6.56,0,6.34,16.99,11.4,16.99,21.72,0,6.56-11.18,16.88-20.21,16.88-7.53,0-12.47-3.98-12.47-9.35,0-2.37,3.23-5.91,4.95-6.67,1.29,5.48,6.13,10.54,13.44,10.54Z" fill="#FFFFFF"></path>
  <path d="M130.42,44.88c0-1.29-.43-1.72-4.3-5.27v-.65c6.67-.86,13.87-2.37,18.17-3.98h1.08l-26.77,68.06c-.97,2.36-1.08,3.01-1.08,3.33,0,.86.43,1.29,1.18,1.29,1.93,0,6.67-3.01,11.18-8.82.54,0,.75.21.75.75-6.77,10.11-13.55,16.02-19.03,16.02-3.33,0-5.05-2.37-5.05-4.95,0-.86.75-2.69,1.61-5.16l21.93-59.13c.21-.54.32-1.08.32-1.51Z" fill="#FFFFFF"></path>
  <path d="M134.83,99.93c0-15.05,16.13-34.83,31.07-34.83,7.85,0,13.87,5.16,13.87,15.7,0,15.05-16.13,34.83-31.07,34.83-7.85,0-13.87-5.16-13.87-15.7ZM144.82,106.06c0,4.95.86,7.74,3.87,7.74,8.92,0,21.07-25.48,21.07-39.13,0-4.95-.86-7.74-3.87-7.74-8.92,0-21.07,25.48-21.07,39.13Z" fill="#FFFFFF"></path>
  <path d="M128.78,192.88c-.75,2.04-.97,3.33-.97,4.41,0,3.44,3.98,6.24,10.75,6.24,12.15,0,21.07-5.48,30.96-19.89l.86.32c-2.15,3.76-9.14,16.77-11.29,22.25-16.13-.11-26.56-.21-34.73-.21s-14.19.11-21.72.21l.54-1.4c6.02-.22,8.71-.86,10.96-4.09,1.83-2.79,5.81-13.65,11.07-28.17l1.72-4.73c5.27-14.51,9.35-25.37,9.35-28.38,0-2.8-1.93-3.66-7.96-3.87l.54-1.4c5.05.11,10.32.22,15.7.22s10.75-.11,15.91-.22l-.54,1.4c-6.02.21-8.71.86-10.97,4.09-1.83,2.8-5.81,13.65-11.07,28.17l-9.14,25.05Z" fill="#FFFFFF"></path>
  <path d="M174.04,191.59c0-15.05,16.13-34.83,31.07-34.83,7.85,0,13.87,5.16,13.87,15.7,0,15.05-16.13,34.83-31.07,34.83-7.85,0-13.87-5.16-13.87-15.7ZM184.04,197.71c0,4.95.86,7.74,3.87,7.74,8.92,0,21.07-25.48,21.07-39.13,0-4.95-.86-7.74-3.87-7.74-8.92,0-21.07,25.48-21.07,39.13Z" fill="#FFFFFF"></path>
  <path d="M270.05,166.54c0,12.9-16.02,40.75-33.65,40.75-6.45,0-10.86-4.62-10.86-11.18,0-10.86,14.3-20.1,21.29-30.21l-10.64.43c-7.31.32-10.11,2.04-10.11,4.09,0,2.37,6.34.97,6.34,5.38,0,2.8-1.83,4.3-4.09,4.3-2.47,0-4.73-2.69-4.73-6.45,0-6.67,8.39-16.66,13.65-16.66,3.87,0,7.42,3.01,13.65,2.58l2.79-3.23c.54,0,.97.21.97.86-10.75,14.94-18.71,26.02-18.71,34.83,0,4.73,2.15,8.39,7.42,8.39,9.14,0,21.4-15.91,21.4-26.13,0-8.17-6.02-9.57-6.02-14.08,0-1.94,1.61-4.19,4.41-4.19,4.84,0,6.88,4.73,6.88,10.54Z" fill="#FFFFFF"></path>
  <path d="M282.42,207.28c-7.53,0-12.58-5.05-12.58-13.76,0-14.73,17.09-36.77,32.47-36.77,6.56,0,9.78,3.12,9.78,7.96,0,10.43-16.34,15.16-30.32,17.31-.75,3.01-1.29,6.02-1.29,8.82,0,6.67,2.9,11.07,7.85,11.07s10.54-4.19,15.37-11.83c.54,0,1.08.11,1.08.75-5.38,10.75-14.19,16.45-22.36,16.45ZM282.2,180.73c14.73-3.12,21.39-10.11,21.39-18.17,0-2.47-1.07-3.76-3.01-3.76-6.34,0-14.84,10.64-18.38,21.93Z" fill="#FFFFFF"></path>
</svg>