<svg xmlns:xlink="http://www.w3.org/1999/xlink" xmlns="http://www.w3.org/2000/svg" fill="none" viewBox="0 0 52 53" height="53" width="52">
<rect fill="#EDEBEA" rx="5" height="52" width="52" y="0.0421753"/>
<path fill="#353131" d="M38.6133 15.2006H34.0574C32.3137 15.2006 30.8232 15.8194 29.5858 17.0568C28.4046 18.2942 27.814 19.7847 27.814 21.5284V26H24.1861V31.3997H27.814V43.9708H33.2137V31.3997H38.6133V26H33.2137V22.3721C33.2137 21.9221 33.3824 21.5284 33.7199 21.1909C34.0574 20.7972 34.4792 20.6003 34.9854 20.6003H38.6133V15.2006ZM7.98706 10.026C7.98706 8.92318 8.88104 8.02921 9.98382 8.02921H42.0163C43.119 8.02921 44.013 8.92318 44.013 10.026V41.974C44.013 43.0768 43.119 43.9708 42.0163 43.9708H9.98381C8.88103 43.9708 7.98706 43.0768 7.98706 41.974V10.026Z"/>
</svg>