<svg xmlns:xlink="http://www.w3.org/1999/xlink" xmlns="http://www.w3.org/2000/svg" viewBox="0 0 600 147" width="600"  height="147" >
  <g fill="#FFFFFF">
    <path d="M67.22,58.95L25.99,0H0v97.13h23.38v-60.83l42.25,60.83h24.83V0h-23.23v58.95ZM140.98,21.49c-21.63,0-40.22,15.84-40.22,38.18v1.16c0,22.36,18.58,38.04,40.22,38.04s40.22-15.72,40.22-38.04v-1.16c0-22.36-18.58-38.18-40.22-38.18ZM140.98,78.84c-9.87,0-17.42-7.92-17.42-18.48s7.55-18.87,17.42-18.87,17.41,8.17,17.41,18.91-7.54,18.44-17.41,18.44ZM213.72,41.52v-18.29h-22.33v73.91h22.44v-35.87c0-11.18,8.71-18.15,20.33-18.15,2.26-.03,4.51.26,6.68.87v-21.78c-1.94-.51-3.94-.75-5.95-.73-12.01,0-18.54,7.26-21.16,20.04ZM574.66,21.49c-12.49,0-20.18,7.11-23.38,17.86v-16.12h-22.21v73.91h22.44v-39.79c0-9.87,5.08-15.54,13.36-15.54s12.63,5.28,12.63,14.66v40.65h22.5v-48.49c.07-20.04-12.57-27.15-25.34-27.15ZM421.77,21.49c-21.92,0-39.6,15.39-39.6,38.28v.95c0,23.67,18,38.18,40.36,38.18,17.28,0,32.09-8.86,37.89-22.79l-23.23-3.34c-2.64,4.5-7.92,6.82-14.52,6.82-9,0-15.24-4.5-17.28-12.63h55.9v-7.14c-.04-22.94-17.46-38.33-39.53-38.33h0ZM405.51,51.98c2.18-7.55,7.69-11.88,16.26-11.88s14.08,4.36,16.26,11.88h-32.52ZM493.93,41.52v-18.29h-22.36v73.91h22.44v-35.87c0-11.18,8.71-18.15,20.33-18.15,2.26-.03,4.51.26,6.68.87v-21.78c-1.94-.51-3.94-.75-5.95-.73-11.98,0-18.52,7.26-21.13,20.04h0ZM346.57,21.49c-12.34,0-19.89,6.82-23.23,17.42V0h-22.5v97.13h22.54v-39.78c0-9.87,5.28-15.54,13.5-15.54s12.49,5.28,12.49,14.66v40.65h22.44v-48.49c.03-20.04-12.61-27.15-25.24-27.15ZM271.36,0h-22.5v97.13h22.5v-53.14h21.63v-20.76h-21.63V0Z" fill="#FFFFFF"></path>
    <path d="M172.05,126.04c5.33,0,10.08,3.89,10.08,10.22s-4.75,10.19-10.08,10.19-10.05-3.89-10.05-10.19,4.75-10.22,10.05-10.22ZM172.05,142.75c3.04,0,6.13-2.1,6.13-6.52s-3.09-6.52-6.13-6.52-6.1,2.1-6.1,6.52,3.1,6.52,6.1,6.52Z" fill="#FFFFFF"></path>
    <path d="M195.16,132.17c-.19-1.08-1.08-2.76-3.56-2.76-1.85,0-3.07,1.19-3.07,2.48,0,1.08.69,1.93,2.13,2.21l2.73.53c3.56.69,5.47,3.01,5.47,5.77,0,3.01-2.51,6.05-7.07,6.05-5.19,0-7.48-3.34-7.79-6.13l3.54-.94c.16,1.93,1.52,3.67,4.28,3.67,2.04,0,3.18-1.02,3.18-2.4,0-1.13-.86-2.02-2.38-2.32l-2.73-.55c-3.12-.63-5.14-2.65-5.14-5.61,0-3.48,3.12-6.13,6.82-6.13,4.75,0,6.57,2.87,7.01,5.08l-3.42,1.05Z" fill="#FFFFFF"></path>
    <path d="M202.1,146.03v-19.58h3.81v15.94h8.73v3.65h-12.54Z" fill="#FFFFFF"></path>
    <path d="M225.84,126.04c5.33,0,10.08,3.89,10.08,10.22s-4.75,10.19-10.08,10.19-10.05-3.89-10.05-10.19,4.75-10.22,10.05-10.22ZM225.84,142.75c3.04,0,6.13-2.1,6.13-6.52s-3.09-6.52-6.13-6.52-6.1,2.1-6.1,6.52,3.09,6.52,6.1,6.52Z" fill="#FFFFFF"></path>
    <path d="M244.45,139.43v-3.18h25.96v3.18h-25.96Z" fill="#FFFFFF"></path>
    <path d="M289.85,132.17c-.19-1.08-1.08-2.76-3.56-2.76-1.85,0-3.07,1.19-3.07,2.48,0,1.08.69,1.93,2.13,2.21l2.73.53c3.56.69,5.47,3.01,5.47,5.77,0,3.01-2.51,6.05-7.07,6.05-5.19,0-7.48-3.34-7.79-6.13l3.54-.94c.16,1.93,1.52,3.67,4.28,3.67,2.04,0,3.18-1.02,3.18-2.4,0-1.13-.86-2.02-2.38-2.32l-2.73-.55c-3.12-.63-5.14-2.65-5.14-5.61,0-3.48,3.12-6.13,6.82-6.13,4.75,0,6.57,2.87,7.01,5.08l-3.42,1.05Z" fill="#FFFFFF"></path>
    <path d="M296.79,146.03v-19.58h3.87v19.58h-3.87Z" fill="#FFFFFF"></path>
    <path d="M317.85,146.03l-8.89-13.89v13.89h-3.81v-19.58h4.75l8.15,12.95v-12.95h3.81v19.58h-4.01Z" fill="#FFFFFF"></path>
    <path d="M325.18,136.26c0-6.24,4.72-10.22,9.97-10.22s8.2,3.31,8.98,6.49l-3.59,1.13c-.47-1.88-1.99-3.95-5.39-3.95-2.93,0-6.02,2.1-6.02,6.55,0,4.17,2.93,6.46,6.08,6.46,3.34,0,4.97-2.18,5.5-4l3.56,1.08c-.74,3.01-3.56,6.66-9.06,6.66s-10.02-3.95-10.02-10.19Z" fill="#FFFFFF"></path>
    <path d="M347.46,146.03v-19.58h12.26v3.59h-8.45v4.47h7.65v3.4h-7.65v4.53h8.45v3.59h-12.26Z" fill="#FFFFFF"></path>
    <path d="M369.4,133.89c-.06-.27-.15-.88-.15-1.36,0-3.44,2.6-6.56,7.16-6.56s7.07,2.9,7.07,6.32c0,2.54-1.39,4.59-3.81,6.08l-3.78,2.3c-.76.48-1.39,1.03-1.69,1.78h9.4v3.6h-14.5c.03-3.45,1.12-6.26,4.62-8.37l3.23-1.93c1.66-1,2.33-2.03,2.33-3.38s-1-2.69-2.96-2.69c-2.09,0-3.11,1.42-3.11,3.26,0,.36.06.76.15,1.09l-3.96-.12Z" fill="#FFFFFF"></path>
    <path d="M387.5,129.26c1.3-1.93,3.42-3.29,6.47-3.29s5.17,1.36,6.44,3.29c1.33,2.03,1.76,4.47,1.76,6.98s-.42,4.96-1.76,6.98c-1.27,1.93-3.38,3.29-6.44,3.29s-5.17-1.36-6.47-3.29c-1.33-2.03-1.72-4.47-1.72-6.98s.39-4.96,1.72-6.98ZM391.01,141.23c.6.97,1.54,1.6,2.96,1.6s2.33-.63,2.93-1.6c.78-1.18,1.09-2.93,1.09-4.99s-.3-3.81-1.09-4.99c-.61-.97-1.48-1.6-2.93-1.6s-2.36.63-2.96,1.6c-.76,1.18-1.06,2.93-1.06,4.99s.3,3.81,1.06,4.99Z" fill="#FFFFFF"></path>
    <path d="M406.3,129.26c1.3-1.93,3.42-3.29,6.47-3.29s5.17,1.36,6.44,3.29c1.33,2.03,1.76,4.47,1.76,6.98s-.42,4.96-1.76,6.98c-1.27,1.93-3.38,3.29-6.44,3.29s-5.17-1.36-6.47-3.29c-1.33-2.03-1.72-4.47-1.72-6.98s.39-4.96,1.72-6.98ZM409.81,141.23c.6.97,1.54,1.6,2.96,1.6s2.33-.63,2.93-1.6c.78-1.18,1.09-2.93,1.09-4.99s-.3-3.81-1.09-4.99c-.61-.97-1.48-1.6-2.93-1.6s-2.36.63-2.96,1.6c-.76,1.18-1.06,2.93-1.06,4.99s.3,3.81,1.06,4.99Z" fill="#FFFFFF"></path>
    <path d="M426.91,139.66c.09,1.81,1.48,3.29,3.57,3.29,1.87,0,3.38-1.24,3.38-3.2,0-2.24-1.66-3.29-3.48-3.29-1.33,0-2.39.6-3.02,1.33-.39-.15-3.38-1.18-3.81-1.3l2.33-10.06h11.06v3.59h-8.22l-.97,4.32c.85-.78,2.24-1.21,3.54-1.21,3.93,0,6.71,2.36,6.71,6.56,0,3.66-2.81,6.83-7.52,6.83-4.26,0-7.22-2.9-7.47-5.98l3.9-.88Z" fill="#FFFFFF"></path>
  </g>
</svg>