<svg xmlns:xlink="http://www.w3.org/1999/xlink" xmlns="http://www.w3.org/2000/svg" viewBox="0 0 300 83" width="300"  height="83" >
  <g fill="#FFFFFF">
    <path d="M33.61,29.47L12.99,0H0v48.57h11.69v-30.42l21.12,30.42h12.41V0h-11.62v29.47ZM70.49,10.74c-10.82,0-20.11,7.92-20.11,19.09v.58c0,11.18,9.29,19.02,20.11,19.02s20.11-7.86,20.11-19.02v-.58c0-11.18-9.29-19.09-20.11-19.09ZM70.49,39.42c-4.94,0-8.71-3.96-8.71-9.24s3.77-9.44,8.71-9.44,8.7,4.09,8.7,9.46-3.77,9.22-8.7,9.22ZM106.86,20.76v-9.15h-11.17v36.96h11.22v-17.94c0-5.59,4.36-9.07,10.16-9.07,1.13-.02,2.25.13,3.34.44v-10.89c-.97-.26-1.97-.38-2.98-.36-6.01,0-9.27,3.63-10.58,10.02ZM287.33,10.74c-6.24,0-10.09,3.56-11.69,8.93v-8.06h-11.11v36.96h11.22v-19.9c0-4.94,2.54-7.77,6.68-7.77s6.32,2.64,6.32,7.33v20.33h11.25v-24.25c.03-10.02-6.28-13.58-12.67-13.58ZM210.89,10.74c-10.96,0-19.8,7.7-19.8,19.14v.48c0,11.83,9,19.09,20.18,19.09,8.64,0,16.04-4.43,18.95-11.4l-11.62-1.67c-1.32,2.25-3.96,3.41-7.26,3.41-4.5,0-7.62-2.25-8.64-6.32h27.95v-3.57c-.02-11.47-8.73-19.16-19.77-19.16h0ZM202.76,25.99c1.09-3.77,3.85-5.94,8.13-5.94s7.04,2.18,8.13,5.94h-16.26ZM246.97,20.76v-9.15h-11.18v36.96h11.22v-17.94c0-5.59,4.36-9.07,10.16-9.07,1.13-.02,2.25.13,3.34.44v-10.89c-.97-.26-1.97-.38-2.98-.36-5.99,0-9.26,3.63-10.57,10.02h0ZM173.28,10.74c-6.17,0-9.95,3.41-11.62,8.71V0h-11.25v48.57h11.27v-19.89c0-4.94,2.64-7.77,6.75-7.77s6.24,2.64,6.24,7.33v20.33h11.22v-24.25c.01-10.02-6.3-13.58-12.62-13.58ZM135.68,0h-11.25v48.57h11.25v-26.57h10.82v-10.38h-10.82V0Z" fill="#FFFFFF"></path>
    <path d="M52.65,67.25c4.06,0,7.67,2.96,7.67,7.78s-3.61,7.75-7.67,7.75-7.65-2.96-7.65-7.75,3.61-7.78,7.65-7.78ZM52.65,79.96c2.31,0,4.67-1.6,4.67-4.96s-2.35-4.96-4.67-4.96-4.64,1.6-4.64,4.96,2.36,4.96,4.64,4.96Z" fill="#FFFFFF"></path>
    <path d="M70.23,71.92c-.15-.82-.82-2.1-2.71-2.1-1.41,0-2.33.9-2.33,1.89,0,.82.53,1.47,1.62,1.68l2.08.4c2.71.53,4.16,2.29,4.16,4.39,0,2.29-1.91,4.6-5.38,4.6-3.95,0-5.69-2.54-5.92-4.67l2.69-.71c.12,1.47,1.15,2.79,3.26,2.79,1.56,0,2.42-.78,2.42-1.83,0-.86-.65-1.53-1.81-1.77l-2.08-.42c-2.37-.48-3.91-2.02-3.91-4.27,0-2.65,2.37-4.67,5.19-4.67,3.61,0,5,2.19,5.34,3.87l-2.6.8Z" fill="#FFFFFF"></path>
    <path d="M75.51,82.46v-14.9h2.9v12.13h6.64v2.77h-9.54Z" fill="#FFFFFF"></path>
    <path d="M93.57,67.25c4.06,0,7.67,2.96,7.67,7.78s-3.61,7.75-7.67,7.75-7.65-2.96-7.65-7.75,3.61-7.78,7.65-7.78ZM93.57,79.96c2.31,0,4.67-1.6,4.67-4.96s-2.35-4.96-4.67-4.96-4.64,1.6-4.64,4.96,2.35,4.96,4.64,4.96Z" fill="#FFFFFF"></path>
    <path d="M107.73,77.44v-2.42h19.75v2.42h-19.75Z" fill="#FFFFFF"></path>
    <path d="M142.28,71.92c-.15-.82-.82-2.1-2.71-2.1-1.41,0-2.33.9-2.33,1.89,0,.82.53,1.47,1.62,1.68l2.08.4c2.71.53,4.16,2.29,4.16,4.39,0,2.29-1.91,4.6-5.38,4.6-3.95,0-5.69-2.54-5.92-4.67l2.69-.71c.12,1.47,1.15,2.79,3.26,2.79,1.56,0,2.42-.78,2.42-1.83,0-.86-.65-1.53-1.81-1.77l-2.08-.42c-2.37-.48-3.91-2.02-3.91-4.27,0-2.65,2.37-4.67,5.19-4.67,3.61,0,5,2.19,5.34,3.87l-2.6.8Z" fill="#FFFFFF"></path>
    <path d="M147.56,82.46v-14.9h2.94v14.9h-2.94Z" fill="#FFFFFF"></path>
    <path d="M163.58,82.46l-6.77-10.57v10.57h-2.9v-14.9h3.61l6.2,9.86v-9.86h2.9v14.9h-3.05Z" fill="#FFFFFF"></path>
    <path d="M169.16,75.03c0-4.75,3.59-7.78,7.58-7.78s6.24,2.52,6.83,4.94l-2.73.86c-.36-1.43-1.51-3.01-4.1-3.01-2.23,0-4.58,1.6-4.58,4.98,0,3.17,2.23,4.92,4.62,4.92,2.54,0,3.78-1.66,4.18-3.05l2.71.82c-.57,2.29-2.71,5.06-6.89,5.06s-7.63-3.01-7.63-7.75Z" fill="#FFFFFF"></path>
    <path d="M186.11,82.46v-14.9h9.33v2.73h-6.43v3.4h5.82v2.58h-5.82v3.45h6.43v2.73h-9.33Z" fill="#FFFFFF"></path>
    <path d="M202.8,73.22c-.05-.21-.11-.67-.11-1.03,0-2.62,1.98-4.99,5.45-4.99s5.38,2.21,5.38,4.81c0,1.93-1.06,3.49-2.9,4.62l-2.87,1.75c-.58.37-1.06.78-1.29,1.36h7.15v2.74h-11.04c.02-2.62.85-4.76,3.52-6.37l2.46-1.47c1.26-.76,1.77-1.54,1.77-2.58s-.76-2.05-2.25-2.05c-1.59,0-2.37,1.08-2.37,2.48,0,.28.05.58.11.83l-3.01-.09Z" fill="#FFFFFF"></path>
    <path d="M216.58,69.7c.99-1.47,2.6-2.51,4.92-2.51s3.93,1.03,4.9,2.51c1.01,1.54,1.34,3.4,1.34,5.31s-.32,3.77-1.34,5.31c-.97,1.47-2.58,2.51-4.9,2.51s-3.93-1.03-4.92-2.51c-1.01-1.54-1.31-3.4-1.31-5.31s.3-3.77,1.31-5.31ZM219.25,78.81c.46.74,1.17,1.22,2.25,1.22s1.77-.48,2.23-1.22c.6-.9.83-2.23.83-3.79s-.23-2.9-.83-3.79c-.46-.74-1.13-1.22-2.23-1.22s-1.79.48-2.25,1.22c-.58.9-.81,2.23-.81,3.79s.23,2.9.81,3.79Z" fill="#FFFFFF"></path>
    <path d="M230.88,69.7c.99-1.47,2.6-2.51,4.92-2.51s3.93,1.03,4.9,2.51c1.01,1.54,1.34,3.4,1.34,5.31s-.32,3.77-1.34,5.31c-.97,1.47-2.58,2.51-4.9,2.51s-3.93-1.03-4.92-2.51c-1.01-1.54-1.31-3.4-1.31-5.31s.3-3.77,1.31-5.31ZM233.55,78.81c.46.74,1.17,1.22,2.25,1.22s1.77-.48,2.23-1.22c.6-.9.83-2.23.83-3.79s-.23-2.9-.83-3.79c-.46-.74-1.13-1.22-2.23-1.22s-1.79.48-2.25,1.22c-.58.9-.81,2.23-.81,3.79s.23,2.9.81,3.79Z" fill="#FFFFFF"></path>
    <path d="M246.56,77.61c.07,1.38,1.13,2.51,2.71,2.51,1.42,0,2.58-.94,2.58-2.44,0-1.7-1.27-2.51-2.64-2.51-1.01,0-1.82.46-2.3,1.01-.3-.11-2.58-.9-2.9-.99l1.77-7.66h8.41v2.74h-6.25l-.74,3.29c.64-.6,1.7-.92,2.69-.92,2.99,0,5.1,1.79,5.1,4.99,0,2.78-2.14,5.2-5.72,5.2-3.24,0-5.5-2.21-5.68-4.55l2.97-.67Z" fill="#FFFFFF"></path>
  </g>
</svg>