<svg xmlns:xlink="http://www.w3.org/1999/xlink" xmlns="http://www.w3.org/2000/svg" fill="none" viewBox="0 0 53 52" height="52" width="53">
<rect fill="#EDEBEA" rx="5" height="51.9999" width="52" x="0.0422363"/>
<path fill="#353131" d="M37.4036 10.099C34.6502 7.45579 30.8398 6 26.6744 6C20.3116 6 16.3981 8.60821 14.2356 10.7961C11.5704 13.4925 10.0422 17.0727 10.0422 20.619C10.0422 25.0716 11.9047 28.4891 15.0235 29.7605C15.2329 29.8463 15.4436 29.8895 15.6501 29.8895C16.3081 29.8895 16.8295 29.4589 17.0101 28.7684C17.1154 28.3722 17.3593 27.3948 17.4654 26.9705C17.6924 26.1326 17.509 25.7295 17.0138 25.146C16.1118 24.0787 15.6917 22.8165 15.6917 21.174C15.6917 16.295 19.3247 11.1096 26.0581 11.1096C31.4008 11.1096 34.7195 14.1462 34.7195 19.0342C34.7195 22.1187 34.0551 24.9753 32.8483 27.0781C32.0097 28.5392 30.5351 30.2808 28.2714 30.2808C27.2925 30.2808 26.4131 29.8787 25.8582 29.1776C25.3341 28.5149 25.1613 27.6588 25.3721 26.7665C25.6103 25.7584 25.935 24.7068 26.2493 23.6902C26.8225 21.8335 27.3644 20.0798 27.3644 18.6807C27.3644 16.2875 25.8932 14.6795 23.7037 14.6795C20.9212 14.6795 18.7413 17.5056 18.7413 21.1134C18.7413 22.8828 19.2115 24.2062 19.4244 24.7144C19.0738 26.1995 16.9905 35.0293 16.5954 36.6943C16.3669 37.6662 14.9905 45.3431 17.2687 45.9552C19.8284 46.643 22.1164 39.1662 22.3493 38.3214C22.5381 37.6343 23.1985 35.0361 23.6031 33.4389C24.8389 34.6292 26.8285 35.4339 28.7644 35.4339C32.414 35.4339 35.6962 33.7915 38.0065 30.8097C40.247 27.9175 41.481 23.8864 41.481 19.4595C41.4809 15.9987 39.9946 12.5868 37.4036 10.099Z"/>
</svg>